<?xml version="1.0" standalone="no"?>
<!DOCTYPE svg PUBLIC "-//W3C//DTD SVG 20010904//EN"
 "http://www.w3.org/TR/2001/REC-SVG-20010904/DTD/svg10.dtd">
<svg version="1.0" xmlns="http://www.w3.org/2000/svg"
 width="512.000000pt" height="512.000000pt" viewBox="0 0 512.000000 512.000000"
 preserveAspectRatio="xMidYMid meet">
<metadata>
Created by potrace 1.14, written by Peter Selinger 2001-2017
</metadata>
<g transform="translate(0.000000,512.000000) scale(0.100000,-0.100000)"
fill="#000000" stroke="none">
<path d="M4259 4329 c-218 -32 -421 -268 -673 -784 -82 -167 -172 -368 -217
-483 -16 -43 -38 -95 -49 -117 -10 -22 -32 -69 -49 -105 -16 -36 -38 -74 -49
-85 -94 -97 -439 -425 -572 -545 -19 -17 -48 -44 -65 -59 -55 -50 -259 -217
-345 -282 -182 -139 -453 -329 -470 -329 -15 0 -17 8 -15 53 3 75 20 128 81
251 62 126 66 155 25 197 -52 51 -138 35 -221 -42 -54 -50 -160 -148 -215
-199 -203 -186 -418 -325 -520 -335 -69 -6 -118 40 -109 105 29 208 201 447
487 676 45 36 90 72 99 79 33 27 103 70 162 98 75 37 148 45 200 23 21 -9 48
-16 59 -16 36 0 101 38 124 73 19 28 21 38 13 68 -32 116 -202 140 -435 61
-247 -83 -421 -166 -1115 -530 -298 -156 -326 -175 -336 -227 -8 -43 1 -70 31
-89 46 -30 104 -26 175 13 14 8 52 28 85 46 33 18 148 80 255 138 107 58 203
109 213 113 10 4 -15 -36 -56 -88 -124 -159 -178 -261 -202 -383 -15 -77 -11
-179 9 -226 38 -91 177 -156 310 -146 140 10 316 95 519 249 56 42 103 76 103
75 1 -1 4 -36 7 -78 6 -85 22 -125 67 -162 62 -53 164 -45 305 23 64 31 205
121 260 167 6 5 35 26 65 48 166 120 454 355 605 493 128 116 119 110 105 82
-7 -14 -87 -153 -178 -310 -247 -425 -282 -504 -252 -559 14 -28 65 -50 105
-46 58 5 102 36 185 135 50 59 180 209 221 253 l25 28 45 -83 c79 -148 194
-276 313 -347 62 -37 168 -78 225 -87 20 -3 54 -9 76 -13 59 -11 178 -5 270
13 198 39 454 166 715 354 58 42 107 78 110 82 3 3 28 23 55 44 106 83 187
173 228 253 40 77 5 134 -79 128 -53 -3 -107 -36 -155 -95 -46 -56 -267 -234
-403 -325 -157 -104 -360 -200 -464 -220 -228 -42 -377 -6 -508 123 -51 50
-138 171 -130 179 2 3 19 6 38 9 18 3 44 7 58 10 14 3 36 8 50 10 162 28 434
160 595 289 287 229 317 494 64 580 -136 46 -265 34 -424 -38 -148 -68 -314
-183 -460 -319 -27 -26 -51 -45 -53 -43 -2 2 8 21 21 43 42 65 121 211 201
368 75 148 76 150 214 289 131 134 280 294 353 380 19 22 45 51 57 65 38 40
284 350 326 409 85 120 155 257 188 366 14 48 11 127 -7 163 -21 41 -77 79
-130 87 -77 12 -90 13 -146 4z m36 -236 c-14 -59 -114 -243 -173 -322 -61 -80
-214 -270 -254 -316 -9 -11 -39 -47 -65 -79 -26 -33 -58 -71 -71 -85 l-23 -25
10 24 c5 14 34 78 65 143 31 65 56 120 56 121 0 2 27 52 61 112 159 285 332
486 392 456 5 -2 6 -15 2 -29z m-304 -1741 c75 -26 58 -89 -48 -190 -177 -167
-461 -294 -643 -289 -38 2 -73 6 -77 11 -4 4 6 19 22 33 17 14 68 61 115 103
129 117 200 174 292 233 170 111 243 132 339 99z"/>
</g>
</svg>
